<svg width="53" height="52" viewBox="0 0 53 52" fill="none" xmlns="http://www.w3.org/2000/svg">
<path fill-rule="evenodd" clip-rule="evenodd" d="M25.3919 0.187053C24.6952 0.554969 24.6033 0.897484 24.6033 3.12734C24.6033 5.37772 24.6935 5.70519 25.4136 6.0726C25.9214 6.3317 26.3335 6.3317 26.8413 6.0726C27.5614 5.70519 27.6515 5.37772 27.6515 3.12734C27.6515 1.38489 27.6308 1.14815 27.447 0.787749C27.0721 0.0528307 26.1543 -0.21541 25.3919 0.187053ZM8.46521 7.26139C8.06681 7.34227 7.46225 8.03208 7.38401 8.4949C7.26889 9.17647 7.55877 9.63238 9.01967 11.0675C10.0418 12.0715 10.422 12.3803 10.7595 12.4806C11.9016 12.82 12.9586 11.763 12.6193 10.6208C12.5188 10.2827 12.2121 9.90601 11.2061 8.88507C10.4995 8.16793 9.80529 7.52029 9.66365 7.44591C9.35264 7.28243 8.78862 7.19566 8.46521 7.26139ZM42.7401 7.38007C42.5091 7.49011 41.779 8.13826 41.0487 8.88131C40.0445 9.90347 39.7359 10.2833 39.6356 10.6208C39.2962 11.763 40.3532 12.82 41.4954 12.4806C41.8335 12.3801 42.2102 12.0735 43.2311 11.0675C43.9483 10.3608 44.6079 9.64539 44.6969 9.47774C45.3744 8.20176 44.0332 6.76403 42.7401 7.38007ZM24.2203 9.93842C17.1805 10.8253 11.5716 16.1147 10.2172 23.1438C9.93494 24.6089 9.95902 27.599 10.2648 29.037C11.3197 33.9991 14.368 38.0694 18.6985 40.2983C23.4239 42.7306 28.7156 42.7514 33.4381 40.3565C37.5675 38.2624 40.6303 34.4338 41.7808 29.928C43.2045 24.3517 41.4679 18.3489 37.2697 14.3354C35.0274 12.1917 32.209 10.7242 29.2026 10.1349C27.9518 9.88975 25.4043 9.78926 24.2203 9.93842ZM28.6394 13.1363C31.0332 13.5904 33.4297 14.843 35.1957 16.5633C38.8355 20.1088 40.1387 25.3169 38.5672 30.0384C37.2556 33.9794 34.2905 36.9951 30.376 38.3694C29.6449 38.6261 28.0926 38.9944 27.742 38.9944C27.6896 38.9944 27.6515 33.5147 27.6515 25.9888C27.6515 18.4629 27.6896 12.9832 27.742 12.9832C27.7917 12.9832 28.1954 13.052 28.6394 13.1363ZM0.904778 24.6742C0.475796 24.9007 0.116211 25.5001 0.116211 25.9888C0.116211 26.4929 0.475593 27.0783 0.92642 27.3083C1.28682 27.4921 1.52356 27.5129 3.26601 27.5129C5.51639 27.5129 5.84386 27.4227 6.21127 26.7027C6.47037 26.1948 6.47037 25.7827 6.21127 25.2749C5.84234 24.5518 5.51903 24.464 3.24467 24.4691C1.4946 24.4732 1.24404 24.4952 0.904778 24.6742ZM46.6276 24.6742C46.1987 24.9007 45.8391 25.5001 45.8391 25.9888C45.8391 26.4929 46.1985 27.0783 46.6493 27.3083C47.0097 27.4921 47.2464 27.5129 48.9889 27.5129C50.7313 27.5129 50.9681 27.4921 51.3285 27.3083C51.7793 27.0783 52.1387 26.4929 52.1387 25.9888C52.1387 25.4846 51.7793 24.8992 51.3285 24.6692C50.9665 24.4846 50.7366 24.4651 48.9675 24.4691C47.2175 24.4732 46.9669 24.4952 46.6276 24.6742ZM10.5309 39.5955C9.98564 39.8506 7.69259 42.1768 7.47993 42.6905C7.24146 43.2663 7.36064 43.8003 7.83321 44.2728C8.27378 44.7134 8.70896 44.8326 9.2999 44.6746C9.63124 44.5859 9.9893 44.296 11.0257 43.2772C12.7223 41.6093 12.9439 41.1564 12.5061 40.2519C12.3541 39.9379 12.1783 39.7621 11.8643 39.6101C11.3334 39.3531 11.0555 39.35 10.5309 39.5955ZM40.3829 39.6121C40.0782 39.7629 39.8966 39.9464 39.7479 40.2538C39.3111 41.1562 39.5335 41.6102 41.2292 43.2772C42.6239 44.6484 42.9921 44.8626 43.7075 44.7195C44.1389 44.6332 44.7719 44.0002 44.8582 43.5688C45.0012 42.8534 44.787 42.4853 43.4159 41.0905C41.7472 39.3931 41.2828 39.1667 40.3829 39.6121ZM25.3919 45.9099C24.6952 46.2778 24.6033 46.6203 24.6033 48.8502C24.6033 50.5926 24.6241 50.8294 24.8079 51.1898C25.0379 51.6406 25.6233 52 26.1274 52C26.6316 52 27.217 51.6406 27.447 51.1898C27.6308 50.8294 27.6515 50.5926 27.6515 48.8502C27.6515 47.1078 27.6308 46.871 27.447 46.5106C27.0721 45.7757 26.1543 45.5075 25.3919 45.9099Z" fill="white"/>
</svg>
