<svg width="82" height="43" viewBox="0 0 82 43" fill="none" xmlns="http://www.w3.org/2000/svg">
<path fill-rule="evenodd" clip-rule="evenodd" d="M70.6084 3.1404L69.216 6.17661L68.9077 5.60447C68.7382 5.28978 68.376 4.68848 68.1029 4.26815C66.6807 2.07959 64.747 0.802522 62.8605 0.80609C61.532 0.808573 60.3949 1.36015 59.2037 2.57966C57.1553 4.67693 55.6844 8.37851 55.191 12.6775C55.0045 14.3023 55.0213 17.498 55.2238 18.9169C55.4929 20.8021 56.0025 22.774 56.5252 23.9528C56.6402 24.2121 56.7179 24.3601 56.6979 24.2819C56.6779 24.2038 56.6103 23.7151 56.5479 23.196C56.3989 21.9585 56.4422 18.3162 56.6201 17.1182C56.9021 15.2186 57.625 12.5671 58.2234 11.2377C59.1817 9.10849 60.6705 7.38449 62.1783 6.65776C62.675 6.41839 63.5171 6.23463 64.1174 6.23463C66.0257 6.23463 68.2057 8.0089 69.6716 10.7552L69.9937 11.3586L70.2543 10.8327C71.2345 8.85438 72.8193 5.46113 72.8193 5.34051C72.8193 5.11541 72.1086 0.395993 72.0514 0.241246C72.015 0.142891 71.6077 0.961147 70.6084 3.1404ZM77.6365 0.356977C75.7113 0.597435 74.2454 2.79111 74.5931 4.91125C74.9394 7.02302 76.834 8.52317 78.7164 8.17614C79.5066 8.03039 80.2428 7.59624 80.8095 6.94158C81.5243 6.1158 81.783 5.40334 81.7862 4.25139C81.7891 3.21455 81.4951 2.38862 80.8486 1.61713C79.9928 0.595805 78.962 0.191371 77.6365 0.356977ZM0.500977 0.358916C0.50119 0.369542 3.05939 9.78526 6.18596 21.2827L11.8707 42.187L12.1154 42.2102L12.3601 42.2334L15.9129 29.2773C17.8669 22.1515 19.486 16.3468 19.5109 16.378C19.5358 16.4092 21.086 22.0195 22.9558 28.8455C24.8257 35.6714 26.4172 41.4744 26.4925 41.741C26.6243 42.2079 26.6381 42.2258 26.8648 42.2258H27.1002L27.4992 40.7714C27.7186 39.9715 29.9157 31.8976 32.3817 22.8296C35.832 10.1411 36.9187 6.24037 37.0979 5.90055L37.3306 5.45896H41.3373C43.5409 5.45896 45.3439 5.47695 45.3439 5.49898C45.3439 5.52101 43.8545 8.34422 42.0341 11.7728L38.7242 18.0066V19.2478V20.489L40.3791 20.5292C41.5562 20.5578 42.1882 20.6072 42.5679 20.7002C45.2413 21.3553 46.797 23.2709 47.3149 26.5451C47.4822 27.6023 47.4791 29.9699 47.3091 31.0173C46.8783 33.6722 45.5861 35.9869 44.1102 36.7478C42.9402 37.351 41.2768 37.1354 40.008 36.2162C39.0514 35.5232 38.0414 34.1465 37.4311 32.7038C37.2733 32.3309 37.1362 32.0163 37.1262 32.0049C37.1106 31.9868 33.3049 33.6805 33.2633 33.724C33.2187 33.7707 33.7724 35.238 34.1162 35.9846C34.7512 37.3629 35.3047 38.1994 36.2994 39.2838C37.8076 40.9281 39.2202 41.7592 41.1002 42.1084C41.915 42.2597 43.4822 42.2586 44.3455 42.106C47.3054 41.5829 49.7849 39.3617 51.3176 35.8602C53.136 31.7061 53.1377 25.8988 51.322 21.863C50.0937 19.1328 48.1949 17.2528 45.6429 16.24C45.3958 16.142 45.2082 16.0239 45.225 15.9769C45.2417 15.9301 46.8128 12.9682 48.7163 9.3951L52.1772 2.89839V1.61868V0.338981L42.8422 0.358606L33.5071 0.378308L30.072 13.0993C27.9645 20.9035 26.6179 25.7688 26.5878 25.6871C26.5609 25.6137 25.0102 19.8892 23.1418 12.9661L19.7446 0.378308L17.2516 0.357907L14.7586 0.337585L15.8936 4.49038L17.0286 8.64317L14.7349 17.1154C13.4733 21.7751 12.419 25.6329 12.3919 25.6882C12.3568 25.76 6.24995 3.39179 5.5447 0.608294L5.47658 0.339524H2.98864C1.62028 0.339524 0.500834 0.348289 0.500977 0.358916ZM78.7642 0.88932C79.7024 1.07835 80.5569 1.77731 80.9679 2.69198C81.9302 4.83369 80.7879 7.24897 78.6215 7.65333C77.6702 7.83096 76.634 7.43661 75.9259 6.62751C74.6603 5.18165 74.7337 3.0906 76.0987 1.69912C76.8134 0.970688 77.7522 0.685473 78.7642 0.88932ZM76.7342 4.2154V6.47547L77.1079 6.45197L77.4816 6.42855L77.5016 5.47835L77.5216 4.52815H77.8968H78.2721L78.6874 5.49774L79.1026 6.46733H79.5199C79.7495 6.46733 79.9373 6.45182 79.9373 6.43289C79.9373 6.41396 79.7448 5.95469 79.5095 5.41234C79.2743 4.86991 79.0901 4.41963 79.1003 4.41172C79.1104 4.40381 79.2497 4.31872 79.4098 4.22269C79.796 3.99115 79.9671 3.66304 79.9674 3.15327C79.9678 2.67104 79.8145 2.40498 79.3994 2.1677C79.1548 2.02785 78.9654 2.00388 77.9264 1.98131L76.7342 1.95533V4.2154ZM78.974 2.74155C79.1302 2.90157 79.1573 2.98945 79.1398 3.27676C79.1084 3.78808 78.8876 3.93864 78.117 3.97378L77.5171 4.00108V3.24853V2.49597L78.1521 2.52312C78.7105 2.54693 78.8096 2.5733 78.974 2.74155ZM53.3173 29.749C53.3134 29.9011 54.2296 32.6732 54.5035 33.3381C55.9562 36.8642 58.0639 39.6414 60.3464 41.0372C61.7502 41.8956 63.6093 42.2448 65.2403 41.9566C67.0869 41.6302 68.593 40.7 70.3321 38.8118C71.1884 37.8822 72.3222 36.193 72.8847 35.0089L73.1257 34.5016L72.7885 32.5655C72.6031 31.5007 72.4373 30.5806 72.42 30.5209C72.4027 30.4612 72.1323 30.8773 71.8192 31.4456C70.9719 32.9835 70.5284 33.6178 69.545 34.6984C68.1385 36.244 66.989 37.0783 65.4431 37.6758C64.3421 38.1013 63.0956 38.2234 61.8093 38.0317C60.6296 37.856 59.1353 37.1409 57.9896 36.2039C57.2463 35.596 55.9686 34.2271 55.4858 33.5216C55.1326 33.0054 54.276 31.5146 53.6458 30.3192C53.4659 29.9779 53.318 29.7213 53.3173 29.749Z" fill="white"/>
</svg>
